<?xml version="1.0"?>
<svg xmlns="http://www.w3.org/2000/svg" xmlns:xlink="http://www.w3.org/1999/xlink" xmlns:svgjs="http://svgjs.com/svgjs" version="1.1" width="512" height="512" x="0" y="0" viewBox="0 0 512 512" style="enable-background:new 0 0 512 512" xml:space="preserve" class=""><g><g xmlns="http://www.w3.org/2000/svg"><path d="m421.855 62.51c-13.817 0-54.906-.076-69.255 0 1.204-16.855-10.021-31.699-27.5-31.698h-33.97c-1.879-17.3-16.574-30.812-34.365-30.812-17.779 0-32.467 13.492-34.36 30.812h-33.975c-17.332-.017-29.041 15.083-27.5 31.698h-50.706c-.026 0-20.079 0-20.079 0-20.678 0-37.5 16.822-37.5 37.5v374.49c0 20.678 16.822 37.5 37.5 37.5h216.567c4.143 0 7.5-3.358 7.5-7.5s-3.357-7.5-7.5-7.5h-216.567c-12.406 0-22.5-10.093-22.5-22.5v-374.49c0-10.78 7.621-19.809 17.757-21.993-1.764 3.626-2.755 7.693-2.755 11.989v57.094c0 4.142 3.357 7.5 7.5 7.5s7.5-3.358 7.5-7.5v-57.094c0-6.867 5.566-12.454 12.423-12.496h50.86c-1.389 15.794 11.74 29.686 27.5 29.635h136.67c15.685-.034 28.79-13.724 27.5-29.635h49.328c6.857.042 12.423 5.63 12.423 12.496v364.494c0 6.893-5.607 12.5-12.5 12.5h-291.704c-6.893 0-12.5-5.607-12.5-12.5v-272.4c0-4.142-3.357-7.5-7.5-7.5s-7.5 3.358-7.5 7.5v272.4c0 15.164 12.337 27.5 27.5 27.5h291.704c15.164 0 27.5-12.336 27.5-27.5v-364.494c0-4.296-.992-8.363-2.756-11.989 10.137 2.183 17.76 11.213 17.76 21.993v374.49c0 12.407-10.094 22.5-22.5 22.5h-80.143c-4.143 0-7.5 3.358-7.5 7.5s3.357 7.5 7.5 7.5h80.143c20.678 0 37.5-16.822 37.5-37.5v-374.49c0-20.678-16.822-37.5-37.5-37.5zm-84.255 17.135c0 6.893-5.607 12.5-12.5 12.5h-136.67c-6.893 0-12.5-5.607-12.5-12.5v-21.333c0-6.893 5.607-12.5 12.5-12.5h37.564c6.076.027 11.203-5.137 11.203-11.245 0-10.79 8.778-19.567 19.567-19.567s19.567 8.778 19.567 19.598c0 6.085 5.098 11.247 11.203 11.214h37.566c6.893 0 12.5 5.607 12.5 12.5zm24.902 296.355c0-4.142-3.357-7.5-7.5-7.5h-94.663c-4.143 0-7.5 3.358-7.5 7.5s3.357 7.5 7.5 7.5h94.663c4.143 0 7.5-3.358 7.5-7.5zm-34.112-220.364h-99.5c-18.941 0-34.764 13.574-38.27 31.504h-54.485c-4.143 0-7.5 3.358-7.5 7.5s3.357 7.5 7.5 7.5h54.487c3.509 17.926 19.33 31.496 38.268 31.496h99.5c6.341 0 11.5-5.159 11.5-11.5v-3.5h30v7.5c0 4.142 3.357 7.5 7.5 7.5s7.5-3.358 7.5-7.5v-15-33-15c0-4.142-3.357-7.5-7.5-7.5s-7.5 3.358-7.5 7.5v7.5h-30v-3.5c0-6.341-5.159-11.5-11.5-11.5zm-3.5 22.5v33 7.5h-96c-13.211 0-23.962-10.73-23.998-23.933 0-.021.003-.042.003-.063 0-.022-.003-.044-.003-.066.034-13.206 10.786-23.938 23.999-23.938h7.069v11.125c0 4.142 3.357 7.5 7.5 7.5s7.5-3.358 7.5-7.5v-11.125h15v11.125c0 4.142 3.357 7.5 7.5 7.5s7.5-3.358 7.5-7.5v-11.125h15v11.125c0 4.142 3.357 7.5 7.5 7.5s7.5-3.358 7.5-7.5v-11.125h13.931v7.5zm45 7.5v18h-30v-18zm-190.447 155.632c2.945 0 5.891-1.121 8.133-3.362l40.253-40.253c2.929-2.929 2.929-7.678 0-10.606-2.93-2.929-7.678-2.929-10.607 0l-37.777 37.778-15.612-15.613c-2.929-2.929-7.677-2.93-10.607 0-2.929 2.929-2.929 7.677 0 10.606l18.088 18.088c2.24 2.242 5.185 3.362 8.129 3.362zm80.896 57.232c-4.143 0-7.5 3.358-7.5 7.5s3.357 7.5 7.5 7.5h64.663c4.143 0 7.5-3.358 7.5-7.5s-3.357-7.5-7.5-7.5zm-85.981 23.057c2.242 2.241 5.187 3.361 8.131 3.361 2.945 0 5.891-1.121 8.133-3.362l40.253-40.253c2.929-2.929 2.929-7.678 0-10.606-2.93-2.929-7.678-2.929-10.607 0l-37.777 37.778-15.612-15.613c-2.929-2.929-7.678-2.929-10.606 0-2.93 2.929-2.93 7.677-.001 10.606zm85.981-91.707h64.663c4.143 0 7.5-3.358 7.5-7.5s-3.357-7.5-7.5-7.5h-64.663c-4.143 0-7.5 3.358-7.5 7.5s3.358 7.5 7.5 7.5zm94.663-45h-94.663c-4.143 0-7.5 3.358-7.5 7.5s3.357 7.5 7.5 7.5h94.663c4.143 0 7.5-3.358 7.5-7.5s-3.357-7.5-7.5-7.5z" fill="#32b27e" data-original="#000000" style="" class=""/></g></g></svg>
